<mxfile host="65bd71144e">
    <diagram id="SzVBOOYm2cDbpaOfWUa9" name="第 1 页">
        <mxGraphModel dx="876" dy="566" grid="1" gridSize="10" guides="1" tooltips="1" connect="1" arrows="1" fold="1" page="1" pageScale="1" pageWidth="1169" pageHeight="827" math="0" shadow="0">
            <root>
                <mxCell id="0"/>
                <mxCell id="1" parent="0"/>
                <mxCell id="18" value="" style="shape=cube;whiteSpace=wrap;html=1;boundedLbl=1;backgroundOutline=1;darkOpacity=0.05;darkOpacity2=0.1;size=70;fillColor=#f8cecc;strokeColor=#b85450;" vertex="1" parent="1">
                    <mxGeometry x="324" y="90" width="90" height="160" as="geometry"/>
                </mxCell>
                <mxCell id="8" value="" style="shape=cube;whiteSpace=wrap;html=1;boundedLbl=1;backgroundOutline=1;darkOpacity=0.05;darkOpacity2=0.1;size=40;fillColor=#ffe6cc;strokeColor=#d79b00;" vertex="1" parent="1">
                    <mxGeometry x="50" y="60" width="70" height="180" as="geometry"/>
                </mxCell>
                <mxCell id="10" value="" style="shape=cube;whiteSpace=wrap;html=1;boundedLbl=1;backgroundOutline=1;darkOpacity=0.05;darkOpacity2=0.1;size=30;fillColor=#ffe6cc;strokeColor=#d79b00;" vertex="1" parent="1">
                    <mxGeometry x="190" y="112.5" width="60" height="100" as="geometry"/>
                </mxCell>
                <mxCell id="12" value="" style="shape=cube;whiteSpace=wrap;html=1;boundedLbl=1;backgroundOutline=1;darkOpacity=0.05;darkOpacity2=0.1;size=40;fillColor=#ffe6cc;strokeColor=#d79b00;" vertex="1" parent="1">
                    <mxGeometry x="130" y="65" width="50" height="175" as="geometry"/>
                </mxCell>
                <mxCell id="13" value="" style="shape=cube;whiteSpace=wrap;html=1;boundedLbl=1;backgroundOutline=1;darkOpacity=0.05;darkOpacity2=0.1;size=30;fillColor=#ffe6cc;strokeColor=#d79b00;" vertex="1" parent="1">
                    <mxGeometry x="240" y="172.5" width="60" height="100" as="geometry"/>
                </mxCell>
                <mxCell id="14" value="conv_vgg:&lt;br&gt;channels: 3 - 64" style="text;html=1;align=center;verticalAlign=middle;resizable=0;points=[];autosize=1;strokeColor=none;fillColor=none;" vertex="1" parent="1">
                    <mxGeometry x="30" y="20" width="110" height="40" as="geometry"/>
                </mxCell>
                <mxCell id="15" value="max-pooling" style="text;html=1;align=center;verticalAlign=middle;resizable=0;points=[];autosize=1;strokeColor=none;fillColor=none;" vertex="1" parent="1">
                    <mxGeometry x="120" y="240" width="90" height="30" as="geometry"/>
                </mxCell>
                <mxCell id="16" value="conv_vgg:&lt;br&gt;channels: 64-128" style="text;html=1;align=center;verticalAlign=middle;resizable=0;points=[];autosize=1;strokeColor=none;fillColor=none;" vertex="1" parent="1">
                    <mxGeometry x="160" y="62.5" width="120" height="40" as="geometry"/>
                </mxCell>
                <mxCell id="17" value="CLIP text-encoder&lt;br&gt;channels:1-128" style="text;html=1;align=center;verticalAlign=middle;resizable=0;points=[];autosize=1;strokeColor=none;fillColor=none;" vertex="1" parent="1">
                    <mxGeometry x="204" y="272.5" width="120" height="40" as="geometry"/>
                </mxCell>
                <mxCell id="20" value="fusion_conv:&lt;br&gt;channels: 256-128" style="text;html=1;align=center;verticalAlign=middle;resizable=0;points=[];autosize=1;strokeColor=none;fillColor=none;" vertex="1" parent="1">
                    <mxGeometry x="340" y="250" width="120" height="40" as="geometry"/>
                </mxCell>
                <mxCell id="21" value="" style="shape=cube;whiteSpace=wrap;html=1;boundedLbl=1;backgroundOutline=1;darkOpacity=0.05;darkOpacity2=0.1;size=40;fillColor=#dae8fc;strokeColor=#6c8ebf;" vertex="1" parent="1">
                    <mxGeometry x="460" y="90" width="70" height="160" as="geometry"/>
                </mxCell>
                <mxCell id="22" value="upsample&lt;br&gt;channels: 128-128" style="text;html=1;align=center;verticalAlign=middle;resizable=0;points=[];autosize=1;strokeColor=none;fillColor=none;" vertex="1" parent="1">
                    <mxGeometry x="460" y="260" width="120" height="40" as="geometry"/>
                </mxCell>
                <mxCell id="23" value="" style="shape=cube;whiteSpace=wrap;html=1;boundedLbl=1;backgroundOutline=1;darkOpacity=0.05;darkOpacity2=0.1;size=20;fillColor=#dae8fc;strokeColor=#6c8ebf;" vertex="1" parent="1">
                    <mxGeometry x="540" y="137.5" width="50" height="80" as="geometry"/>
                </mxCell>
                <mxCell id="24" value="conv_scatch&lt;br&gt;channels: 128-64" style="text;html=1;align=center;verticalAlign=middle;resizable=0;points=[];autosize=1;strokeColor=none;fillColor=none;" vertex="1" parent="1">
                    <mxGeometry x="515" y="90" width="120" height="40" as="geometry"/>
                </mxCell>
                <mxCell id="25" value="" style="shape=cube;whiteSpace=wrap;html=1;boundedLbl=1;backgroundOutline=1;darkOpacity=0.05;darkOpacity2=0.1;size=13;fillColor=#dae8fc;strokeColor=#6c8ebf;" vertex="1" parent="1">
                    <mxGeometry x="380" y="564.37" width="60" height="47.5" as="geometry"/>
                </mxCell>
                <mxCell id="27" value="conv_sigmoid&lt;br&gt;channels: 64-1" style="text;html=1;align=center;verticalAlign=middle;resizable=0;points=[];autosize=1;strokeColor=none;fillColor=none;" vertex="1" parent="1">
                    <mxGeometry x="600" y="210" width="100" height="40" as="geometry"/>
                </mxCell>
                <mxCell id="28" value="&lt;font color=&quot;#d79b00&quot; size=&quot;1&quot;&gt;&lt;b style=&quot;font-size: 20px;&quot;&gt;encoder&lt;/b&gt;&lt;/font&gt;" style="text;html=1;align=center;verticalAlign=middle;resizable=0;points=[];autosize=1;strokeColor=none;fillColor=none;" vertex="1" parent="1">
                    <mxGeometry x="100" y="320" width="100" height="40" as="geometry"/>
                </mxCell>
                <mxCell id="29" value="&lt;font color=&quot;#b85450&quot; size=&quot;1&quot;&gt;&lt;b style=&quot;font-size: 20px;&quot;&gt;fusion&lt;/b&gt;&lt;/font&gt;" style="text;html=1;align=center;verticalAlign=middle;resizable=0;points=[];autosize=1;strokeColor=none;fillColor=none;" vertex="1" parent="1">
                    <mxGeometry x="350" y="320" width="80" height="40" as="geometry"/>
                </mxCell>
                <mxCell id="30" value="&lt;font color=&quot;#6c8ebf&quot; size=&quot;1&quot;&gt;&lt;b style=&quot;font-size: 20px;&quot;&gt;decoder&lt;/b&gt;&lt;/font&gt;" style="text;html=1;align=center;verticalAlign=middle;resizable=0;points=[];autosize=1;strokeColor=none;fillColor=none;" vertex="1" parent="1">
                    <mxGeometry x="545" y="320" width="100" height="40" as="geometry"/>
                </mxCell>
                <mxCell id="32" value="" style="shape=cube;whiteSpace=wrap;html=1;boundedLbl=1;backgroundOutline=1;darkOpacity=0.05;darkOpacity2=0.1;size=13;fillColor=#dae8fc;strokeColor=#6c8ebf;" vertex="1" parent="1">
                    <mxGeometry x="610" y="163.75" width="60" height="47.5" as="geometry"/>
                </mxCell>
                <mxCell id="33" value="" style="shape=cube;whiteSpace=wrap;html=1;boundedLbl=1;backgroundOutline=1;darkOpacity=0.05;darkOpacity2=0.1;size=30;fillColor=#ffe6cc;strokeColor=#d79b00;" vertex="1" parent="1">
                    <mxGeometry x="450" y="524.37" width="40" height="91.25" as="geometry"/>
                </mxCell>
                <mxCell id="34" value="" style="shape=cube;whiteSpace=wrap;html=1;boundedLbl=1;backgroundOutline=1;darkOpacity=0.05;darkOpacity2=0.1;size=40;fillColor=#dae8fc;strokeColor=#6c8ebf;" vertex="1" parent="1">
                    <mxGeometry x="494" y="510" width="60" height="120" as="geometry"/>
                </mxCell>
                <mxCell id="36" value="conv_scatch:&lt;br&gt;channels: 1-128" style="text;html=1;align=center;verticalAlign=middle;resizable=0;points=[];autosize=1;strokeColor=none;fillColor=none;" vertex="1" parent="1">
                    <mxGeometry x="355" y="615.62" width="110" height="40" as="geometry"/>
                </mxCell>
                <mxCell id="37" value="max-pooling" style="text;html=1;align=center;verticalAlign=middle;resizable=0;points=[];autosize=1;strokeColor=none;fillColor=none;" vertex="1" parent="1">
                    <mxGeometry x="400" y="494.37" width="90" height="30" as="geometry"/>
                </mxCell>
                <mxCell id="39" value="fully-connected:&lt;br&gt;channels:128-1" style="text;html=1;align=center;verticalAlign=middle;resizable=0;points=[];autosize=1;strokeColor=none;fillColor=none;" vertex="1" parent="1">
                    <mxGeometry x="485" y="630" width="110" height="40" as="geometry"/>
                </mxCell>
            </root>
        </mxGraphModel>
    </diagram>
</mxfile>